<?xml version="1.0" encoding="UTF-8"?>
<!DOCTYPE svg PUBLIC "-//W3C//DTD SVG 1.1//EN" "http://www.w3.org/Graphics/SVG/1.1/DTD/svg11.dtd">
<!-- Creator: CorelDRAW X6 -->
<svg xmlns="http://www.w3.org/2000/svg" xml:space="preserve" width="100%" height="100%" version="1.1" style="shape-rendering:geometricPrecision; text-rendering:geometricPrecision; image-rendering:optimizeQuality; fill-rule:evenodd; clip-rule:evenodd"
viewBox="0 0 500 500"
 xmlns:xlink="http://www.w3.org/1999/xlink">
 <defs>
  <style type="text/css">
   <![CDATA[
    .str3 {stroke:#686868;stroke-width:10;stroke-linecap:round}
    .str2 {stroke:#484848;stroke-width:20;stroke-linecap:round}
    .str1 {stroke:#303030;stroke-width:30;stroke-linecap:round}
    .fil1 {fill:none}
    .fil4 {fill:url(#id0)}
    .fil2 {fill:url(#id1)}
    .fil3 {fill:url(#id2)}
   ]]>
  </style>
  <linearGradient id="id0" gradientUnits="userSpaceOnUse" x1="70.008" y1="164.254" x2="70.008" y2="330.756">
   <stop offset="0" style="stop-color:#282828"/>
   <stop offset="0.14902" style="stop-color:#484848"/>
   <stop offset="0.368627" style="stop-color:#8A8A8A"/>
   <stop offset="0.690196" style="stop-color:#404040"/>
   <stop offset="1" style="stop-color:#282828"/>
  </linearGradient>
  <linearGradient id="id1" gradientUnits="userSpaceOnUse" x1="256.8" y1="90.906" x2="256.8" y2="409.104">
   <stop offset="0" style="stop-color:#282828"/>
   <stop offset="0.141176" style="stop-color:#484848"/>
   <stop offset="0.341176" style="stop-color:#8A8A8A"/>
   <stop offset="0.619608" style="stop-color:#404040"/>
   <stop offset="1" style="stop-color:#282828"/>
  </linearGradient>
  <linearGradient id="id2" gradientUnits="userSpaceOnUse" x1="176.8" y1="134.005" x2="176.8" y2="366.005">
   <stop offset="0" style="stop-color:#0083DB"/>
   <stop offset="0.278431" style="stop-color:#4EB7FF"/>
   <stop offset="0.639216" style="stop-color:#008EED"/>
   <stop offset="1" style="stop-color:#0062A4"/>
  </linearGradient>
 </defs>
 <g id="Layer_x0020_1">
  <metadata id="CorelCorpID_0Corel-Layer"/>
  <path class="fil1 str1" d="M407 110c37,37 58,88 58,141 0,53 -21,104 -58,141m-43 -240c26,26 41,62 41,99 0,37 -15,73 -41,99m-42 -156c15,15 23,36 23,57 0,21 -8,42 -23,57"/>
  <rect class="fil2" x="244" y="35" width="26.412" height="429.998" rx="10" ry="13"/>
  <polygon class="fil3" points="244,50 110,160 110,340 244,450 "/>
  <path class="fil4" d="M40 160l70 0 0 180 -70 0c-11,0 -20,-9 -20,-20l0 -140c0,-11 9,-20 20,-20z"/>
  <path class="fil1 str2" d="M407 110c37,37 58,88 58,141 0,53 -21,104 -58,141m-43 -240c26,26 41,62 41,99 0,37 -15,73 -41,99m-42 -156c15,15 23,36 23,57 0,21 -8,42 -23,57"/>
  <path class="fil1 str3" d="M407 110c37,37 58,88 58,141 0,53 -21,104 -58,141m-43 -240c26,26 41,62 41,99 0,37 -15,73 -41,99m-42 -156c15,15 23,36 23,57 0,21 -8,42 -23,57"/>
 </g>
</svg>
